<?xml version="1.0" encoding="utf-8"?>
<!-- Generator: Adobe Illustrator 25.4.1, SVG Export Plug-In . SVG Version: 6.00 Build 0)  -->
<svg version="1.1" id="Layer_1" xmlns="http://www.w3.org/2000/svg" xmlns:xlink="http://www.w3.org/1999/xlink" x="0px" y="0px"
	 viewBox="0 0 48 48" style="enable-background:new 0 0 48 48;" xml:space="preserve">
<style type="text/css">
	.st0{fill:#FFFFFF;}
</style>
<path class="st0" d="M9.1,30.1H3.7v0.8h5.4c0.2,3.9,3.4,7.1,7.3,7.3v5.4h0.8v-5.4c3.9-0.2,7.1-3.4,7.3-7.3H30v-0.8h-5.4
	c-0.2-3.9-3.4-7.1-7.3-7.3v-5.4h-0.8v5.4C12.5,23,9.3,26.1,9.1,30.1z M16.4,23.6v6.5H9.9C10.1,26.6,12.9,23.8,16.4,23.6z M9.9,30.9
	h6.5v6.5C12.9,37.2,10.1,34.4,9.9,30.9z M17.2,37.4v-6.5h6.5C23.5,34.4,20.7,37.2,17.2,37.4z M23.7,30.1h-6.5v-6.5
	C20.7,23.8,23.5,26.6,23.7,30.1z"/>
<path class="st0" d="M17.3,4.4H38V3.6H17.3V4.4L17.3,4.4z M43.6,29.9V9.2h-0.8v20.7H43.6z"/>
</svg>
