<?xml version="1.0" encoding="utf-8"?>
<!-- Generator: Adobe Illustrator 25.4.1, SVG Export Plug-In . SVG Version: 6.00 Build 0)  -->
<svg version="1.1" id="Layer_1" xmlns="http://www.w3.org/2000/svg" xmlns:xlink="http://www.w3.org/1999/xlink" x="0px" y="0px"
	 viewBox="0 0 48 48" style="enable-background:new 0 0 48 48;" xml:space="preserve">
<style type="text/css">
	.st0{fill:#FFFFFF;}
</style>
<path class="st0" d="M30.1,38.2v5.4h0.8v-5.4c3.9-0.2,7.1-3.4,7.3-7.3h5.4V30h-5.4c-0.2-3.9-3.4-7.1-7.3-7.3v-5.4h-0.8v5.4
	c-3.9,0.2-7.1,3.4-7.3,7.3h-5.4v0.8h5.4C23,34.8,26.1,37.9,30.1,38.2z M23.6,30.8h6.5v6.5C26.6,37.1,23.8,34.3,23.6,30.8z
	 M30.9,37.3v-6.5h6.5C37.2,34.3,34.4,37.1,30.9,37.3z M37.4,30h-6.5v-6.5C34.4,23.7,37.2,26.5,37.4,30z M30.1,23.5V30h-6.5
	C23.8,26.5,26.6,23.7,30.1,23.5z"/>
<path class="st0" d="M4.4,30V9.3H3.6V30H4.4L4.4,30z M29.9,3.7H9.2v0.8h20.7V3.7z"/>
</svg>
