<svg id="Layer_1" data-name="Layer 1" xmlns="http://www.w3.org/2000/svg" viewBox="0 0 40 39.9"><path d="M17.2,9.1V3.7h-.8V9.1a7.7,7.7,0,0,0-7.3,7.3H3.6v.9H9.1a7.7,7.7,0,0,0,7.3,7.3V30h.8V24.6a7.8,7.8,0,0,0,7.3-7.3h5.4v-.9H24.5A7.8,7.8,0,0,0,17.2,9.1Zm6.5,7.3H17.2V9.9A7,7,0,0,1,23.7,16.4ZM16.4,9.9v6.5H9.9A7,7,0,0,1,16.4,9.9ZM9.9,17.3h6.5v6.5A6.9,6.9,0,0,1,9.9,17.3Zm7.3,6.5V17.3h6.5A6.9,6.9,0,0,1,17.2,23.8Z" transform="translate(-3.6 -3.7)"/><path d="M42.8,17.3V38h.8V17.3ZM17.3,43.6H38v-.8H17.3Z" transform="translate(-3.6 -3.7)"/></svg>