<svg xmlns="http://www.w3.org/2000/svg" viewBox="0 0 96.27 96.27"><defs><style>.cls-1{stroke:#000;stroke-miterlimit:10;}</style></defs><g id="Layer_2" data-name="Layer 2"><g id="Element"><path class="cls-1" d="M48,33.39v-9.9H46.51v9.9A14.12,14.12,0,0,0,33.16,46.74h-9.9v1.49h9.9A14.13,14.13,0,0,0,46.51,61.59v9.9H48v-9.9A14.15,14.15,0,0,0,61.36,48.23h9.9V46.74h-9.9A14.14,14.14,0,0,0,48,33.39ZM59.87,46.74H48V34.88A12.65,12.65,0,0,1,59.87,46.74ZM46.51,34.88V46.74H34.64A12.65,12.65,0,0,1,46.51,34.88ZM34.64,48.23H46.51V60.1A12.65,12.65,0,0,1,34.64,48.23ZM48,60.1V48.23H59.87A12.65,12.65,0,0,1,48,60.1Z"/><path d="M96.27,93.34H20.52v2.93H96.27V93.34ZM0,0V75.75H2.93V0Z"/></g></g></svg>