<svg id="Layer_1" data-name="Layer 1" xmlns="http://www.w3.org/2000/svg" viewBox="0 0 39.9 40"><path d="M38.1,17.2h5.5v-.8H38.1a7.6,7.6,0,0,0-7.3-7.3V3.6H30V9.1a7.7,7.7,0,0,0-7.3,7.3H17.3v.8h5.4A7.8,7.8,0,0,0,30,24.5v5.4h.8V24.5A7.7,7.7,0,0,0,38.1,17.2Zm-7.3,6.5V17.2h6.5A6.9,6.9,0,0,1,30.8,23.7Zm6.5-7.3H30.8V9.9A6.9,6.9,0,0,1,37.3,16.4ZM30,9.9v6.5H23.5A6.9,6.9,0,0,1,30,9.9Zm-6.5,7.3H30v6.5A6.9,6.9,0,0,1,23.5,17.2Z" transform="translate(-3.7 -3.6)"/><path d="M30,42.8H9.3v.8H30v-.8ZM3.7,17.3V38h.8V17.3Z" transform="translate(-3.7 -3.6)"/></svg>